<svg width="77" height="76" viewBox="0 0 77 76" fill="none" xmlns="http://www.w3.org/2000/svg">
<g clip-path="url(#clip0_5_3)">
<g clip-path="url(#clip1_5_3)">
<path opacity="0.06" d="M55.9787 0H22.0213C10.4115 0 1 9.41155 1 21.0213V54.9787C1 66.5885 10.4115 76 22.0213 76H55.9787C67.5885 76 77 66.5885 77 54.9787V21.0213C77 9.41155 67.5885 0 55.9787 0Z" fill="#F6CA4F"/>
<path d="M39.0001 63.8788C53.2925 63.8788 64.8788 52.2925 64.8788 38.0001C64.8788 23.7076 53.2925 12.1213 39.0001 12.1213C24.7076 12.1213 13.1213 23.7076 13.1213 38.0001C13.1213 52.2925 24.7076 63.8788 39.0001 63.8788Z" fill="#FF6D35"/>
<path d="M48.5505 49.6729H29.4495C27.1149 49.6729 25.2048 47.7628 25.2048 45.4282V30.5718C25.2048 28.2373 27.1149 26.3271 29.4495 26.3271H48.5505C50.8851 26.3271 52.7952 28.2373 52.7952 30.5718V45.4282C52.7952 47.7628 50.8851 49.6729 48.5505 49.6729Z" stroke="white" stroke-width="2" stroke-miterlimit="10" stroke-linecap="round" stroke-linejoin="round"/>
<path d="M25.2048 31.6329L39 40.1223L52.7952 31.6329" stroke="white" stroke-width="2" stroke-miterlimit="10" stroke-linecap="round" stroke-linejoin="round"/>
</g>
</g>
<defs>
<clipPath id="clip0_5_3">
<rect width="75.5938" height="75.5938" fill="white" transform="translate(0.71875 0.265625)"/>
</clipPath>
<clipPath id="clip1_5_3">
<rect width="76" height="76" fill="white" transform="translate(1)"/>
</clipPath>
</defs>
</svg>
