<svg width="244" height="37" viewBox="0 0 244 37" fill="none" xmlns="http://www.w3.org/2000/svg">
<path d="M14.205 12.7498C14.2048 13.1476 14.0466 13.5291 13.7651 13.8102C13.4837 14.0914 13.1021 14.2492 12.7042 14.249C12.3064 14.2488 11.925 14.0906 11.6438 13.8092C11.3626 13.5277 11.2048 13.1461 11.205 12.7483C11.2052 12.3504 11.3634 11.969 11.6449 11.6878C11.9263 11.4067 12.3079 11.2488 12.7057 11.249C13.1036 11.2492 13.485 11.4074 13.7662 11.6889C14.0473 11.9703 14.2052 12.3519 14.205 12.7498ZM14.25 15.3598H11.25V24.7498H14.25V15.3598ZM18.99 15.3598H16.005V24.7498H18.96V19.8223C18.96 17.0773 22.5375 16.8223 22.5375 19.8223V24.7498H25.5V18.8023C25.5 14.1748 20.205 14.3473 18.96 16.6198L18.99 15.3598Z" fill="#75757F"/>
<rect x="0.5" y="1.01562" width="35" height="35" rx="17.5" stroke="#81818B" stroke-opacity="0.9"/>
<path d="M75.359 14.901C75.9874 14.4933 76.4035 13.9369 76.6072 13.2293C75.9959 13.572 75.387 13.8071 74.7788 13.9369C74.232 13.3156 73.5399 13 72.71 13C71.8988 13 71.2137 13.3008 70.6545 13.886C70.0984 14.4752 69.8176 15.1911 69.8176 16.0269C69.8176 16.2809 69.848 16.5077 69.9086 16.7C67.5163 16.6137 65.5362 15.565 63.9761 13.5465C63.7116 14.0405 63.5794 14.5435 63.5794 15.0637C63.5794 16.1329 64.0064 16.9803 64.8588 17.6024C64.3727 17.5589 63.9442 17.429 63.5794 17.2161C63.5794 17.9797 63.7917 18.6174 64.2172 19.1788C64.6441 19.7343 65.1924 20.0886 65.8621 20.2398C65.6194 20.3055 65.3635 20.3368 65.1007 20.3368C64.858 20.3368 64.6861 20.3154 64.5842 20.2685C64.7631 20.8907 65.1007 21.3953 65.5883 21.7816C66.0744 22.1695 66.6336 22.3742 67.262 22.3922C66.226 23.2511 65.0416 23.676 63.7015 23.676C63.3733 23.676 63.1408 23.671 63 23.6447C64.3198 24.5504 65.789 25 67.4144 25C69.078 25 70.5479 24.5546 71.8273 23.6637C73.1067 22.7777 74.0508 21.6846 74.6575 20.3976C75.2672 19.1122 75.569 17.7742 75.569 16.377V15.9924C76.1585 15.5239 76.6352 14.9963 77 14.4136C76.4711 14.6544 75.9244 14.818 75.359 14.901Z" fill="#75757F"/>
<rect x="52.5" y="1.01562" width="35" height="35" rx="17.5" stroke="#81818B" stroke-opacity="0.9"/>
<path d="M124.562 19.4667L125 17.1333L122.812 17.1338V15.2667C122.812 14.5461 123.155 14.3333 124.125 14.3333H125V12C125 12 124.103 12 123.25 12C121.468 12 120.188 13.1363 120.188 15.2667V17.1333H118V19.4667H120.188V26H122.812V19.4667H124.562Z" fill="#75757F"/>
<rect x="104.5" y="1.01562" width="35" height="35" rx="17.5" stroke="#81818B" stroke-opacity="0.9"/>
<path d="M181.666 14.8776C181.482 14.1385 180.939 13.5565 180.251 13.3589C179.003 13 174 13 174 13C174 13 168.997 13 167.749 13.3589C167.061 13.5565 166.518 14.1385 166.334 14.8776C166 16.2172 166 19.0121 166 19.0121C166 19.0121 166 21.8071 166.334 23.1467C166.518 23.8857 167.061 24.4435 167.749 24.6411C168.997 25 174 25 174 25C174 25 179.003 25 180.251 24.6411C180.939 24.4435 181.482 23.8857 181.666 23.1467C182 21.8071 182 19.0121 182 19.0121C182 19.0121 182 16.2172 181.666 14.8776ZM172.364 21.5497V16.4745L176.545 19.0122L172.364 21.5497Z" fill="#75757F"/>
<rect x="156.5" y="1.01562" width="35" height="35" rx="17.5" stroke="#81818B" stroke-opacity="0.9"/>
<path fill-rule="evenodd" clip-rule="evenodd" d="M222.8 11H229.2C231.851 11 234 13.149 234 15.8V22.2C234 24.851 231.851 27 229.2 27H222.8C220.149 27 218 24.851 218 22.2V15.8C218 13.149 220.149 11 222.8 11ZM222.8 12.6C221.033 12.6 219.6 14.0327 219.6 15.8V22.2C219.6 23.9673 221.033 25.4 222.8 25.4H229.2C230.967 25.4 232.4 23.9673 232.4 22.2V15.8C232.4 14.0327 230.967 12.6 229.2 12.6H222.8ZM226 23C223.791 23 222 21.2091 222 19C222 16.7909 223.791 15 226 15C228.209 15 230 16.7909 230 19C230 21.2091 228.209 23 226 23ZM226 21.4C227.325 21.4 228.4 20.3255 228.4 19C228.4 17.6745 227.325 16.6 226 16.6C224.675 16.6 223.6 17.6745 223.6 19C223.6 20.3255 224.675 21.4 226 21.4ZM230 15.8C229.558 15.8 229.2 15.4418 229.2 15C229.2 14.5582 229.558 14.2 230 14.2C230.442 14.2 230.8 14.5582 230.8 15C230.8 15.4418 230.442 15.8 230 15.8Z" fill="#75757F"/>
<rect x="208.5" y="1.01562" width="35" height="35" rx="17.5" stroke="#81818B" stroke-opacity="0.9"/>
</svg>
